<svg width="16" height="14" viewBox="0 0 16 14" fill="none" xmlns="http://www.w3.org/2000/svg">
<path d="M9.59333 13.44L16 7.00001L9.59333 0.560014C9.53547 0.484032 9.46196 0.421368 9.37778 0.376266C9.29359 0.331163 9.2007 0.304675 9.10539 0.298594C9.01008 0.292513 8.91458 0.306981 8.82534 0.341019C8.73611 0.375057 8.65523 0.42787 8.58818 0.495883C8.52114 0.563895 8.46948 0.64552 8.43672 0.73523C8.40396 0.82494 8.39086 0.920642 8.3983 1.01586C8.40575 1.11107 8.43356 1.20357 8.47986 1.28711C8.52616 1.37064 8.58987 1.44324 8.66667 1.50001L13.46 6.33335L0.706667 6.33335C0.529857 6.33335 0.360288 6.40358 0.235264 6.52861C0.110239 6.65363 0.0400009 6.8232 0.0400009 7.00001C0.0400009 7.17682 0.110239 7.34639 0.235264 7.47142C0.360288 7.59644 0.529857 7.66668 0.706667 7.66668L13.46 7.66668L8.66667 12.5C8.54202 12.6255 8.47234 12.7955 8.47296 12.9724C8.47359 13.1493 8.54446 13.3187 8.67 13.4433C8.79554 13.568 8.96545 13.6377 9.14236 13.6371C9.31927 13.6364 9.48868 13.5655 9.61333 13.44H9.59333Z" fill="black"/>
</svg>
