<svg width="21" height="20" viewBox="0 0 21 20" fill="none" xmlns="http://www.w3.org/2000/svg">
<path d="M19.75 9.99952H7.395M3.034 9.99952H1.25M3.034 9.99952C3.034 9.42135 3.26368 8.86686 3.67251 8.45803C4.08134 8.0492 4.63583 7.81952 5.214 7.81952C5.79217 7.81952 6.34666 8.0492 6.75549 8.45803C7.16432 8.86686 7.394 9.42135 7.394 9.99952C7.394 10.5777 7.16432 11.1322 6.75549 11.541C6.34666 11.9498 5.79217 12.1795 5.214 12.1795C4.63583 12.1795 4.08134 11.9498 3.67251 11.541C3.26368 11.1322 3.034 10.5777 3.034 9.99952ZM19.75 16.6065H14.002M14.002 16.6065C14.002 17.1848 13.7718 17.7399 13.3628 18.1489C12.9539 18.5578 12.3993 18.7875 11.821 18.7875C11.2428 18.7875 10.6883 18.5568 10.2795 18.148C9.87068 17.7392 9.641 17.1847 9.641 16.6065M14.002 16.6065C14.002 16.0282 13.7718 15.4741 13.3628 15.0652C12.9539 14.6563 12.3993 14.4265 11.821 14.4265C11.2428 14.4265 10.6883 14.6562 10.2795 15.065C9.87068 15.4739 9.641 16.0284 9.641 16.6065M9.641 16.6065H1.25M19.75 3.39252H16.645M12.284 3.39252H1.25M12.284 3.39252C12.284 2.81435 12.5137 2.25986 12.9225 1.85103C13.3313 1.4422 13.8858 1.21252 14.464 1.21252C14.7503 1.21252 15.0338 1.26891 15.2983 1.37847C15.5627 1.48802 15.8031 1.6486 16.0055 1.85103C16.2079 2.05346 16.3685 2.29378 16.4781 2.55827C16.5876 2.82276 16.644 3.10624 16.644 3.39252C16.644 3.67881 16.5876 3.96228 16.4781 4.22677C16.3685 4.49126 16.2079 4.73159 16.0055 4.93402C15.8031 5.13645 15.5627 5.29703 15.2983 5.40658C15.0338 5.51614 14.7503 5.57252 14.464 5.57252C13.8858 5.57252 13.3313 5.34285 12.9225 4.93402C12.5137 4.52519 12.284 3.9707 12.284 3.39252Z" stroke="black" stroke-width="1.5" stroke-miterlimit="10" stroke-linecap="round"/>
</svg>
