<svg width="173" height="96" viewBox="0 0 173 96" fill="none" xmlns="http://www.w3.org/2000/svg">
<g filter="url(#filter0_d_2_255)">
<path d="M30.0275 0.694336C35.8468 7.69082 34.1771 23.5915 31.4435 32.5156C32.659 31.3636 33.847 30.2799 34.9995 29.2716C35.7684 21.5538 51.1682 3.14879 62.8418 2.89052C62.46 13.8048 45.7399 26.8127 37.9487 30.0294C35.961 31.7098 33.82 33.6785 31.5909 35.8589C39.7232 31.1909 56.2469 27.5617 63.9444 32.5554C55.7107 38.7795 31.8382 41.3917 27.3698 40.1318C25.6773 41.8993 24.0124 43.6933 22.3757 45.5133C30.0704 42.2003 44.07 40.5062 50.206 45.3507C42.7027 50.9761 24.193 51.5522 18.5832 49.8186C18.0412 50.4476 17.5013 51.08 16.964 51.7154C16.5513 51.7573 16.1245 51.8514 15.6835 52.0099C13.944 52.6351 12.87 54.1144 12.5259 55.6922C12.4111 56.2187 12.3625 56.7582 12.3672 57.3019C10.3026 59.8826 8.32057 62.4602 6.4774 64.9721L4.4831 63.4883C6.80294 60.3269 9.3253 57.0721 11.9539 53.8391C7.56286 48.0758 2.61141 29.8581 4.36063 23.3864C11.5291 27.7917 14.5473 42.7526 14.4777 50.7808C15.7188 49.3002 16.9757 47.8332 18.2481 46.38C13.9347 40.6059 12.3125 17.8846 17.3347 9.56977C24.2568 16.4909 23.4787 34.483 21.1751 43.0908C23.2336 40.819 25.2914 38.632 27.3091 36.5807C24.2586 29.3709 23.634 7.99695 30.0275 0.694336ZM21.5425 52.9871C23.3036 53.2108 25.1517 53.438 27.0107 53.5912C28.6789 56.1287 29.3001 60.0283 27.4433 60.6473C26.9053 60.8265 26.0881 60.6753 25.1481 60.0686C24.6062 59.7187 24.0547 59.2296 23.5494 58.6642C23.227 56.8536 22.4872 55.0813 21.4134 53.7757C21.4243 53.4858 21.4633 53.2244 21.5427 52.9871H21.5425ZM32.2052 53.7528C36.2962 54.7379 39.9603 56.5217 41.9632 59.2665C39.0401 59.5197 35.1354 59.5551 31.1233 59.391C31.3803 57.653 30.9316 55.593 30.0219 53.7589C30.7595 53.7775 31.4898 53.7787 32.2052 53.7528ZM17.343 54.1946C21.2882 54.0481 22.4437 63.7784 19.3577 64.0751C18.7935 64.1293 18.0303 63.7986 17.2482 62.9963C16.466 62.1941 15.7424 60.9846 15.309 59.7275C14.8756 58.4704 14.7423 57.1718 14.9481 56.2275C15.154 55.2833 15.5512 54.7082 16.5172 54.3612C16.8045 54.258 17.0799 54.2044 17.3429 54.1946H17.343Z" fill="#9FE870"/>
</g>
<path d="M61.3374 43.8256C61.3374 46.0022 60.9248 47.8539 60.0997 49.3808C59.281 50.9076 58.1635 52.0739 56.7471 52.8796C55.3372 53.6787 53.7518 54.0783 51.9911 54.0783C50.2173 54.0783 48.6255 53.6755 47.2156 52.8698C45.8057 52.0642 44.6914 50.8979 43.8727 49.371C43.0541 47.8442 42.6448 45.9957 42.6448 43.8256C42.6448 41.649 43.0541 39.7973 43.8727 38.2705C44.6914 36.7436 45.8057 35.5806 47.2156 34.7814C48.6255 33.9758 50.2173 33.5729 51.9911 33.5729C53.7518 33.5729 55.3372 33.9758 56.7471 34.7814C58.1635 35.5806 59.281 36.7436 60.0997 38.2705C60.9248 39.7973 61.3374 41.649 61.3374 43.8256ZM57.0589 43.8256C57.0589 42.4157 56.8478 41.2267 56.4255 40.2586C56.0096 39.2905 55.4216 38.5563 54.6615 38.0561C53.9013 37.5558 53.0111 37.3056 51.9911 37.3056C50.971 37.3056 50.0809 37.5558 49.3207 38.0561C48.5605 38.5563 47.9693 39.2905 47.5469 40.2586C47.1311 41.2267 46.9232 42.4157 46.9232 43.8256C46.9232 45.2355 47.1311 46.4245 47.5469 47.3926C47.9693 48.3607 48.5605 49.0949 49.3207 49.5952C50.0809 50.0955 50.971 50.3456 51.9911 50.3456C53.0111 50.3456 53.9013 50.0955 54.6615 49.5952C55.4216 49.0949 56.0096 48.3607 56.4255 47.3926C56.8478 46.4245 57.0589 45.2355 57.0589 43.8256ZM68.5372 33.8458V53.8054H64.3854V33.8458H68.5372ZM71.863 53.8054V38.8357H76.0147V53.8054H71.863ZM73.9486 36.906C73.3313 36.906 72.8018 36.7014 72.36 36.292C71.9247 35.8762 71.707 35.3792 71.707 34.8009C71.707 34.2292 71.9247 33.7386 72.36 33.3293C72.8018 32.9135 73.3313 32.7056 73.9486 32.7056C74.5658 32.7056 75.0921 32.9135 75.5274 33.3293C75.9692 33.7386 76.1901 34.2292 76.1901 34.8009C76.1901 35.3792 75.9692 35.8762 75.5274 36.292C75.0921 36.7014 74.5658 36.906 73.9486 36.906ZM93.2966 38.8357L88.0631 53.8054H83.385L78.1515 38.8357H82.5372L85.6461 49.5465H85.802L88.9012 38.8357H93.2966ZM101.761 54.0978C100.221 54.0978 98.8956 53.7859 97.7846 53.1622C96.6801 52.532 95.8289 51.6418 95.2312 50.4918C94.6334 49.3353 94.3346 47.9676 94.3346 46.3888C94.3346 44.8489 94.6334 43.4975 95.2312 42.3345C95.8289 41.1715 96.6703 40.2651 97.7554 39.6154C98.8469 38.9657 100.127 38.6408 101.595 38.6408C102.583 38.6408 103.502 38.8 104.353 39.1184C105.211 39.4302 105.958 39.9013 106.595 40.5315C107.238 41.1617 107.738 41.9544 108.096 42.9095C108.453 43.8581 108.632 44.9691 108.632 46.2426V47.3829H95.9914V44.81H104.724C104.724 44.2122 104.594 43.6827 104.334 43.2214C104.074 42.7601 103.713 42.3995 103.252 42.1396C102.797 41.8732 102.268 41.74 101.663 41.74C101.033 41.74 100.474 41.8862 99.9872 42.1786C99.5064 42.4644 99.1295 42.851 98.8567 43.3383C98.5838 43.8191 98.4441 44.3551 98.4376 44.9464V47.3926C98.4376 48.1333 98.574 48.7733 98.8469 49.3126C99.1263 49.8518 99.5194 50.2677 100.026 50.56C100.533 50.8524 101.134 50.9986 101.829 50.9986C102.29 50.9986 102.713 50.9336 103.096 50.8037C103.479 50.6737 103.808 50.4788 104.08 50.2189C104.353 49.959 104.561 49.6407 104.704 49.2638L108.544 49.5172C108.349 50.4398 107.95 51.2455 107.345 51.9342C106.748 52.6164 105.974 53.1492 105.026 53.5325C104.084 53.9094 102.995 54.0978 101.761 54.0978ZM109.265 37.3251V33.8458H125.658V37.3251H119.547V53.8054H115.376V37.3251H109.265ZM126.725 53.8054V38.8357H130.75V41.4476H130.906C131.179 40.5185 131.637 39.8168 132.28 39.3425C132.923 38.8617 133.664 38.6213 134.502 38.6213C134.71 38.6213 134.934 38.6343 135.175 38.6603C135.415 38.6863 135.626 38.722 135.808 38.7675V42.4514C135.613 42.393 135.344 42.341 134.999 42.2955C134.655 42.25 134.34 42.2273 134.054 42.2273C133.443 42.2273 132.897 42.3605 132.417 42.6269C131.942 42.8868 131.566 43.2506 131.286 43.7184C131.013 44.1862 130.877 44.7255 130.877 45.3362V53.8054H126.725ZM144.08 54.0978C142.54 54.0978 141.215 53.7859 140.104 53.1622C138.999 52.532 138.148 51.6418 137.55 50.4918C136.953 49.3353 136.654 47.9676 136.654 46.3888C136.654 44.8489 136.953 43.4975 137.55 42.3345C138.148 41.1715 138.989 40.2651 140.074 39.6154C141.166 38.9657 142.446 38.6408 143.914 38.6408C144.902 38.6408 145.821 38.8 146.672 39.1184C147.53 39.4302 148.277 39.9013 148.914 40.5315C149.557 41.1617 150.058 41.9544 150.415 42.9095C150.772 43.8581 150.951 44.9691 150.951 46.2426V47.3829H138.31V44.81H147.043C147.043 44.2122 146.913 43.6827 146.653 43.2214C146.393 42.7601 146.032 42.3995 145.571 42.1396C145.116 41.8732 144.587 41.74 143.983 41.74C143.352 41.74 142.794 41.8862 142.306 42.1786C141.825 42.4644 141.449 42.851 141.176 43.3383C140.903 43.8191 140.763 44.3551 140.757 44.9464V47.3926C140.757 48.1333 140.893 48.7733 141.166 49.3126C141.445 49.8518 141.838 50.2677 142.345 50.56C142.852 50.8524 143.453 50.9986 144.148 50.9986C144.61 50.9986 145.032 50.9336 145.415 50.8037C145.799 50.6737 146.127 50.4788 146.4 50.2189C146.672 49.959 146.88 49.6407 147.023 49.2638L150.863 49.5172C150.668 50.4398 150.269 51.2455 149.664 51.9342C149.067 52.6164 148.294 53.1492 147.345 53.5325C146.403 53.9094 145.315 54.0978 144.08 54.0978ZM160.482 54.0978C158.943 54.0978 157.617 53.7859 156.506 53.1622C155.402 52.532 154.55 51.6418 153.953 50.4918C153.355 49.3353 153.056 47.9676 153.056 46.3888C153.056 44.8489 153.355 43.4975 153.953 42.3345C154.55 41.1715 155.392 40.2651 156.477 39.6154C157.568 38.9657 158.848 38.6408 160.317 38.6408C161.304 38.6408 162.224 38.8 163.075 39.1184C163.932 39.4302 164.68 39.9013 165.316 40.5315C165.96 41.1617 166.46 41.9544 166.817 42.9095C167.175 43.8581 167.353 44.9691 167.353 46.2426V47.3829H154.713V44.81H163.445C163.445 44.2122 163.315 43.6827 163.055 43.2214C162.795 42.7601 162.435 42.3995 161.974 42.1396C161.519 41.8732 160.989 41.74 160.385 41.74C159.755 41.74 159.196 41.8862 158.709 42.1786C158.228 42.4644 157.851 42.851 157.578 43.3383C157.305 43.8191 157.166 44.3551 157.159 44.9464V47.3926C157.159 48.1333 157.295 48.7733 157.568 49.3126C157.848 49.8518 158.241 50.2677 158.748 50.56C159.254 50.8524 159.855 50.9986 160.551 50.9986C161.012 50.9986 161.434 50.9336 161.818 50.8037C162.201 50.6737 162.529 50.4788 162.802 50.2189C163.075 49.959 163.283 49.6407 163.426 49.2638L167.266 49.5172C167.071 50.4398 166.671 51.2455 166.067 51.9342C165.469 52.6164 164.696 53.1492 163.747 53.5325C162.805 53.9094 161.717 54.0978 160.482 54.0978Z" fill="#387709"/>
<path d="M74.0948 76.0791C73.1732 76.0791 72.347 75.9096 71.6161 75.5707C70.8958 75.2423 70.3291 74.7815 69.916 74.1883C69.5029 73.5952 69.2963 72.9225 69.2963 72.1704C69.2963 71.9586 69.3122 71.6779 69.344 71.3283C69.3758 70.9788 69.4181 70.5869 69.4711 70.1526C69.5346 69.7183 69.5982 69.2787 69.6618 68.8338C69.7359 68.3783 69.8048 67.9387 69.8683 67.515L71.9656 67.801C71.8491 68.5107 71.7485 69.1622 71.6638 69.7553C71.5896 70.3379 71.5313 70.8358 71.489 71.2489C71.4466 71.662 71.4254 71.9639 71.4254 72.1546C71.4254 72.5783 71.5313 72.9437 71.7432 73.2509C71.955 73.5581 72.2569 73.7964 72.6489 73.9659C73.0514 74.146 73.5333 74.236 74.0948 74.236C74.6773 74.236 75.1487 74.1513 75.5089 73.9818C75.869 73.8123 76.1285 73.5793 76.2874 73.2827C76.4569 72.9861 76.5416 72.6524 76.5416 72.2817V64.1624H78.6708V72.2817C78.6708 73.0443 78.4695 73.7117 78.067 74.2837C77.675 74.8557 77.1348 75.2953 76.4463 75.6024C75.7578 75.9202 74.9739 76.0791 74.0948 76.0791ZM72.9349 63.5904V61.7791H75.064V63.5904H72.9349ZM87.9374 72.1387V70.2956H89.6058V72.1387H87.9374ZM83.6475 76.0791C83.2555 76.0791 82.8424 76.0473 82.4081 75.9838C81.9844 75.9308 81.5289 75.8567 81.0417 75.7613L81.3595 74.0612C81.8891 74.1248 82.3393 74.1724 82.71 74.2042C83.0807 74.236 83.3932 74.2519 83.6475 74.2519C84.4101 74.2519 84.9609 74.1142 85.2999 73.8388C85.6389 73.5634 85.8083 73.1503 85.8083 72.5994V65.6242L86.3327 66.0056H84.3466C83.9123 66.0056 83.5627 66.0585 83.2979 66.1644C83.0331 66.2598 82.8371 66.4663 82.71 66.7841C82.5935 67.0913 82.5352 67.5627 82.5352 68.1982C82.5352 68.802 82.5882 69.2575 82.6941 69.5647C82.8106 69.8613 83.0013 70.0572 83.2661 70.1526C83.5309 70.2479 83.8911 70.2956 84.3466 70.2956H85.8083V72.1387H84.3466C83.4462 72.1387 82.7047 71.9957 82.1221 71.7097C81.5395 71.4237 81.1052 70.9894 80.8192 70.4068C80.5438 69.8242 80.4061 69.088 80.4061 68.1982C80.4061 67.3084 80.5438 66.567 80.8192 65.9738C81.1052 65.37 81.5395 64.9198 82.1221 64.6232C82.7047 64.316 83.4462 64.1624 84.3466 64.1624H87.9374V72.5994C87.9374 73.3197 87.7574 73.9394 87.3972 74.4584C87.0477 74.9881 86.5498 75.3906 85.9037 75.666C85.2681 75.9414 84.516 76.0791 83.6475 76.0791ZM89.6058 72.1387V70.2956C89.7329 70.2956 89.8176 70.3803 89.86 70.5498C89.9024 70.7087 89.9236 70.9311 89.9236 71.2171C89.9236 71.4925 89.9024 71.715 89.86 71.8844C89.8176 72.0539 89.7329 72.1387 89.6058 72.1387ZM94.2476 72.1387V70.2956H96.2337V72.1387H94.2476ZM96.2337 72.1387V70.2956C96.3608 70.2956 96.4455 70.3803 96.4879 70.5498C96.5303 70.7087 96.5515 70.9311 96.5515 71.2171C96.5515 71.4925 96.5303 71.715 96.4879 71.8844C96.4455 72.0539 96.3608 72.1387 96.2337 72.1387ZM89.608 72.1387V70.2956H93.3737L92.1344 71.3283V64.1624H94.2476V72.1387H89.608ZM89.608 72.1387C89.4809 72.1387 89.3962 72.0539 89.3538 71.8844C89.3114 71.715 89.2902 71.4925 89.2902 71.2171C89.2902 70.9311 89.3114 70.7087 89.3538 70.5498C89.3962 70.3803 89.4809 70.2956 89.608 70.2956V72.1387ZM90.2436 63.2091V61.3978H92.3727V63.2091H90.2436ZM92.4204 63.2091V61.3978H94.5495V63.2091H92.4204ZM96.2336 72.1387V70.2956H99.9992L98.7599 71.3283V64.1624H100.873V72.1387H96.2336ZM96.2336 72.1387C96.1064 72.1387 96.0217 72.0539 95.9793 71.8844C95.937 71.715 95.9158 71.4925 95.9158 71.2171C95.9158 70.9311 95.937 70.7087 95.9793 70.5498C96.0217 70.3803 96.1064 70.2956 96.2336 70.2956V72.1387ZM96.8691 75.4436V73.6322H98.9982V75.4436H96.8691ZM99.0459 75.4436V73.6322H101.175V75.4436H99.0459ZM102.641 76.0791C102.503 76.0791 102.355 76.0738 102.196 76.0632C102.037 76.0526 101.873 76.0367 101.703 76.0156L101.783 74.2042C101.952 74.2148 102.111 74.2254 102.259 74.236C102.418 74.2466 102.535 74.2519 102.609 74.2519C103.022 74.2519 103.35 74.0877 103.594 73.7593C103.848 73.431 103.975 72.9702 103.975 72.377V64.1624H106.104V72.377C106.104 73.0973 105.956 73.7382 105.659 74.2996C105.373 74.861 104.971 75.2953 104.452 75.6024C103.933 75.9202 103.329 76.0791 102.641 76.0791ZM103.975 62.7007V60.8893H106.104V62.7007H103.975ZM134.323 72.1387V70.2956H135.992V72.1387H134.323ZM135.992 72.1387V70.2956C136.119 70.2956 136.203 70.3803 136.246 70.5498C136.288 70.7087 136.309 70.9311 136.309 71.2171C136.309 71.4925 136.288 71.715 136.246 71.8844C136.203 72.0539 136.119 72.1387 135.992 72.1387ZM123.995 72.1387V70.2956H133.99L132.194 71.8527V68.516C132.194 67.9122 132.115 67.4303 131.956 67.0701C131.797 66.6994 131.564 66.4293 131.257 66.2598C130.96 66.0903 130.6 66.0056 130.176 66.0056C129.721 66.0056 129.286 66.0956 128.873 66.2757C128.471 66.4557 128.095 66.6888 127.745 66.9748C127.396 67.2608 127.073 67.568 126.776 67.8963C126.479 68.2247 126.215 68.5425 125.982 68.8497C125.748 69.1463 125.547 69.4005 125.378 69.6123L124.901 68.0711C125.314 67.5733 125.685 67.1178 126.013 66.7047C126.352 66.2916 126.67 65.9261 126.967 65.6083C127.274 65.2906 127.592 65.0257 127.92 64.8139C128.248 64.602 128.614 64.4432 129.016 64.3372C129.419 64.2207 129.885 64.1624 130.415 64.1624C131.114 64.1624 131.712 64.2843 132.21 64.5279C132.708 64.7609 133.11 65.084 133.418 65.4971C133.735 65.9102 133.963 66.3763 134.101 66.8953C134.249 67.4144 134.323 67.9546 134.323 68.516V72.1387H123.995ZM120.643 67.5944V65.7354H123.995V67.5944H120.643ZM123.995 70.2956V64.1624H126.109V70.2956H123.995ZM116.067 76.0791C115.145 76.0791 114.319 75.9096 113.588 75.5707C112.868 75.2423 112.301 74.7815 111.888 74.1883C111.475 73.5952 111.268 72.9225 111.268 72.1704C111.268 71.9586 111.284 71.6779 111.316 71.3283C111.348 70.9788 111.39 70.5869 111.443 70.1526C111.507 69.7183 111.57 69.2787 111.634 68.8338C111.708 68.3783 111.777 67.9387 111.84 67.515L113.938 67.801C113.821 68.5107 113.721 69.1622 113.636 69.7553C113.562 70.3379 113.503 70.8358 113.461 71.2489C113.419 71.662 113.398 71.9639 113.398 72.1546C113.398 72.5783 113.503 72.9437 113.715 73.2509C113.927 73.5581 114.229 73.7964 114.621 73.9659C115.023 74.146 115.505 74.236 116.067 74.236C116.649 74.236 117.121 74.1513 117.481 73.9818C117.841 73.8123 118.101 73.5793 118.26 73.2827C118.429 72.9861 118.514 72.6524 118.514 72.2817V64.1624H120.643V72.2817C120.643 73.0443 120.442 73.7117 120.039 74.2837C119.647 74.8557 119.107 75.2953 118.418 75.6024C117.73 75.9202 116.946 76.0791 116.067 76.0791ZM114.907 63.5904V61.7791H117.036V63.5904H114.907ZM138.974 71.8844C138.434 71.376 138.026 70.8358 137.75 70.2638C137.486 69.6918 137.353 69.0827 137.353 68.4366C137.353 67.8116 137.47 67.2396 137.703 66.7206C137.936 66.1909 138.254 65.7354 138.656 65.3541C139.059 64.9728 139.525 64.6815 140.054 64.4802C140.595 64.2684 141.161 64.1624 141.754 64.1624C142.072 64.1624 142.406 64.1942 142.755 64.2578C143.105 64.3213 143.439 64.4061 143.756 64.512L143.121 66.2439C142.898 66.1697 142.676 66.1115 142.454 66.0691C142.242 66.0267 142.035 66.0056 141.834 66.0056C141.368 66.0056 140.955 66.1115 140.595 66.3233C140.234 66.5246 139.954 66.8053 139.752 67.1654C139.562 67.5256 139.466 67.9387 139.466 68.4048C139.466 69.2734 139.805 70.0043 140.483 70.5974L138.974 71.8844ZM135.987 72.1387V70.2956H143.899V72.1387H135.987ZM135.987 72.1387C135.86 72.1387 135.775 72.0539 135.733 71.8844C135.69 71.715 135.669 71.4925 135.669 71.2171C135.669 70.9311 135.69 70.7087 135.733 70.5498C135.775 70.3803 135.86 70.2956 135.987 70.2956V72.1387ZM139.864 62.7007V60.8893H141.993V62.7007H139.864Z" fill="#232323"/>
<defs>
<filter id="filter0_d_2_255" x="0.5" y="0.194336" width="66.9444" height="71.2778" filterUnits="userSpaceOnUse" color-interpolation-filters="sRGB">
<feFlood flood-opacity="0" result="BackgroundImageFix"/>
<feColorMatrix in="SourceAlpha" type="matrix" values="0 0 0 0 0 0 0 0 0 0 0 0 0 0 0 0 0 0 127 0" result="hardAlpha"/>
<feOffset dy="3"/>
<feGaussianBlur stdDeviation="1.75"/>
<feComposite in2="hardAlpha" operator="out"/>
<feColorMatrix type="matrix" values="0 0 0 0 0 0 0 0 0 0 0 0 0 0 0 0 0 0 0.25 0"/>
<feBlend mode="normal" in2="BackgroundImageFix" result="effect1_dropShadow_2_255"/>
<feBlend mode="normal" in="SourceGraphic" in2="effect1_dropShadow_2_255" result="shape"/>
</filter>
</defs>
</svg>
