<svg xmlns="http://www.w3.org/2000/svg" width="430" height="430" style="width:100%;height:100%;transform:translate3d(0,0,0);content-visibility:visible" viewBox="0 0 430 430"><defs><clipPath id="a"><path d="M0 0h430v430H0z"/></clipPath><clipPath id="b"><path d="M0 0h430v430H0z"/></clipPath></defs><g clip-path="url(#a)"><g fill="none" stroke-linecap="round" stroke-linejoin="round" stroke-width="11.97" clip-path="url(#b)" style="display:block"><g stroke="#387708" style="display:block"><path d="M303.639 122.95c-18.136 22.32-43.034 33.96-63.267 31.619-6.432-19.325-.133-46.079 18.003-68.399s43.035-33.96 63.267-31.619c6.432 19.325.133 46.079-18.003 68.399zm-145.002 15.687" class="secondary"/><path d="M216.262 215s-1.505-11.574 5.51-30.391c2.932-7.865 6.713-13.916 18.6-30.039a985.336 985.336 0 0 1 34.364-43.918" class="secondary"/></g><g stroke="#387708" style="display:block"><path d="M172.064 122.113c16.296 13.242 24.795 31.421 23.086 46.193-14.11 4.696-33.644.097-49.94-13.145-16.296-13.242-24.795-31.421-23.086-46.193 14.11-4.696 33.643-.097 49.94 13.145z" class="secondary"/><path d="M164.274 142.345c11.674 7.353 42.497 28.601 50.427 66.025 1.405 6.631 1.561 6.63 1.561 6.63" class="secondary"/></g><g style="display:block"><path stroke="#387708" d="M289.72 300.4H140.28m144.11 37.36H145.61" class="secondary"/><path stroke="#121330" d="M312.33 263.036H117.67V215h194.66v48.036zm-17.27 0-16.012 112.083H150.952L134.94 263.036" class="primary"/></g></g></g></svg>