<svg width="36" height="36" viewBox="0 0 36 36" fill="none" xmlns="http://www.w3.org/2000/svg">
<path d="M18.0004 15.9998C19.6572 15.9998 21.0004 14.6566 21.0004 12.9998C21.0004 11.3429 19.6572 9.99976 18.0004 9.99976C16.3435 9.99976 15.0004 11.3429 15.0004 12.9998C15.0004 14.6566 16.3435 15.9998 18.0004 15.9998Z" stroke="#585858" stroke-width="2"/>
<path d="M10.0004 23.9998C10.0004 22.9389 10.4218 21.9215 11.1719 21.1713C11.9221 20.4212 12.9395 19.9998 14.0004 19.9998H22.0004C23.0612 19.9998 24.0786 20.4212 24.8288 21.1713C25.5789 21.9215 26.0004 22.9389 26.0004 23.9998C26.0004 24.5302 25.7897 25.0389 25.4146 25.414C25.0395 25.789 24.5308 25.9998 24.0004 25.9998H12.0004C11.4699 25.9998 10.9612 25.789 10.5862 25.414C10.2111 25.0389 10.0004 24.5302 10.0004 23.9998Z" stroke="#585858" stroke-width="2" stroke-linejoin="round"/>
</svg>
