<svg width="36" height="36" viewBox="0 0 36 36" fill="none" xmlns="http://www.w3.org/2000/svg">
<path d="M26.0004 26.0001L21.9504 21.9501M21.9504 21.9501C22.6004 21.3001 23.116 20.5284 23.4678 19.679C23.8196 18.8297 24.0007 17.9194 24.0007 17.0001C24.0007 16.0808 23.8196 15.1705 23.4678 14.3212C23.116 13.4719 22.6004 12.7002 21.9504 12.0501C21.3003 11.4001 20.5286 10.8844 19.6793 10.5326C18.83 10.1808 17.9197 9.99976 17.0004 9.99976C16.0811 9.99976 15.1708 10.1808 14.3214 10.5326C13.4721 10.8844 12.7004 11.4001 12.0504 12.0501C10.7375 13.3629 10 15.1435 10 17.0001C10 18.8567 10.7375 20.6373 12.0504 21.9501C13.3632 23.2629 15.1437 24.0005 17.0004 24.0005C18.857 24.0005 20.6375 23.2629 21.9504 21.9501Z" stroke="#585858" stroke-width="2" stroke-linecap="round" stroke-linejoin="round"/>
</svg>
