<svg xmlns="http://www.w3.org/2000/svg" xmlns:xlink="http://www.w3.org/1999/xlink" version="1.1" x="0px" y="0px" viewBox="0 0 50 50" enable-background="new 0 0 50 50" xml:space="preserve" fill="#387709"><g><path d="M19.32,27.91c-0.61-4.77-2.11-18.57,0.36-22.98c-0.75,0.33-1.21,0.67-1.21,0.67c-4.23,4.05-1.85,17.44-0.81,22.31H19.32z"/><path d="M23.29,27.91c0.004-0.101,1.237-17.746-0.14-22.81c-0.09-0.32-0.17-0.58-0.26-0.79h-0.01c-0.6-0.04-1.17,0.02-1.7,0.13   c-0.09,0.21-0.15,0.36-0.15,0.36c-1.14,4.21-0.47,18.28-0.19,23.11H23.29z"/><path d="M34.1,9.93c0.03-0.06,0.06-0.11,0.07-0.18c2.26,0.47,5.09,0.32,6.98-0.44c-1.89-0.76-4.71-0.91-6.98-0.44   c-0.01-0.07-0.04-0.12-0.07-0.18c1.93-1.28,3.82-3.38,4.62-5.25c-1.88,0.8-3.98,2.69-5.26,4.61c-0.06-0.03-0.11-0.06-0.18-0.07   c0.47-2.26,0.33-5.09-0.44-6.98c-0.76,1.89-0.91,4.72-0.44,6.98c-0.06,0.01-0.12,0.03-0.17,0.07c-1.28-1.92-3.38-3.81-5.26-4.61   c0.8,1.87,2.69,3.97,4.62,5.25c-0.03,0.06-0.06,0.11-0.07,0.18c-2.27-0.47-5.09-0.32-6.98,0.44c1.89,0.76,4.71,0.91,6.98,0.44   c0.01,0.07,0.04,0.12,0.07,0.18c-1.93,1.27-3.82,3.38-4.62,5.25c1.67-0.71,3.51-2.27,4.8-3.96c-0.02,0.19-0.03,0.39-0.03,0.61   l0.19,6.08c0,0-0.12,3.22-3.59,3.63c0.21-1.56,0.37-3.56,0.37-6.16c-0.977,0.63-1.67,0.835-2.71,1.3   c-0.13,5.77-0.48,6.8-1.04,11.23h2.07l0.36-1.62c0.04-0.27,0.12-0.6,0.22-1.01c1.06-0.04,6.69-0.46,6.85-4.52   c0.12-2.99-0.1-6.93-0.27-9.21c1.27,1.56,2.97,2.97,4.53,3.63C37.92,13.31,36.03,11.2,34.1,9.93z"/><path d="M25.57,7.95c0.63-0.15,1.31-0.25,2.02-0.3c-0.3-0.71-0.68-1.31-1.15-1.75c-0.7-0.65-1.43-1.07-2.14-1.31   c0.11,0.14,0.23,0.3,0.34,0.48C25.06,5.73,25.36,6.74,25.57,7.95z"/><path d="M26.05,14.79c0.49-1.15,1.37-2.4,2.43-3.52c-0.01-0.08-0.02-0.17-0.04-0.26c-0.89-0.01-1.76-0.11-2.55-0.27   c0.1,1.34,0.13,2.76,0.13,4.12L26.05,14.79z"/><path d="M13.61,47.02c0.18,1.09,1.07,1.9,2.1,1.9L28.62,49c1.02,0.01,1.91-0.77,2.12-1.85l2.35-12.48H11.56L13.61,47.02z    M22.63,46.73c-1.6,0-2.89-1.29-2.89-2.89h5.78C25.52,45.44,24.23,46.73,22.63,46.73z M27.22,36.59c0.13-0.19,0.39-0.24,0.58-0.11   l2.35,1.61c0.19,0.13,0.24,0.39,0.11,0.58s-0.39,0.24-0.58,0.11l-2.35-1.61C27.14,37.04,27.09,36.78,27.22,36.59z M25.84,38.24   c0.15-0.14,0.39-0.13,0.53,0.02c0.14,0.15,0.13,0.39-0.02,0.53c-0.38,0.36-1,1.09-1.16,1.7c1.16-0.86,2.5-0.79,3.66,0.52   c0.13,0.15,0.12,0.39-0.03,0.53c-0.16,0.13-0.4,0.12-0.53-0.03c-1.03-1.17-2.23-1.07-3.1-0.02c-0.16,0.2-0.47,0.19-0.61-0.04   C23.82,40.18,25.63,38.44,25.84,38.24z M21.56,40.37c0,1-0.82,1.82-1.82,1.82c-1.01,0-1.82-0.82-1.82-1.82   c0-1.01,0.81-1.82,1.82-1.82C20.74,38.55,21.56,39.36,21.56,40.37z M15.75,38.09l2.35-1.61c0.19-0.13,0.45-0.08,0.58,0.11   c0.13,0.19,0.08,0.45-0.11,0.58l-2.35,1.61c-0.19,0.13-0.45,0.08-0.58-0.11C15.52,38.48,15.56,38.22,15.75,38.09z"/><path d="M34.787,28.91H9.965c-0.615,0-1.114,0.499-1.114,1.114v2.531c0,0.615,0.499,1.114,1.114,1.114h24.822   c0.615,0,1.114-0.499,1.114-1.114v-2.531C35.901,29.409,35.402,28.91,34.787,28.91z"/><path d="M19.74,41.35c0.54,0,0.98-0.44,0.98-0.98c0-0.55-0.44-0.99-0.98-0.99c-0.55,0-0.99,0.44-0.99,0.99   C18.75,40.91,19.19,41.35,19.74,41.35z"/></g></svg>