<svg width="358" height="178" viewBox="0 0 358 178" fill="none" xmlns="http://www.w3.org/2000/svg">
<g opacity="0.34">
<g filter="url(#filter0_d_526_3099)">
<path d="M41.4501 1C49.1627 13.4396 46.9497 41.7106 43.3267 57.5775C44.9377 55.5293 46.5122 53.6025 48.0398 51.8098C49.0588 38.0877 69.4691 5.36397 84.9409 4.90476C84.4349 24.3102 62.2747 47.4379 51.9485 53.1571C49.3141 56.1449 46.4764 59.6452 43.5221 63.5218C54.3004 55.2223 76.2003 48.7697 86.4023 57.6483C75.4897 68.7147 43.8499 73.3591 37.9275 71.119C35.6844 74.2615 33.4778 77.4513 31.3086 80.6872C41.5069 74.7967 60.0615 71.7847 68.1939 80.3982C58.2493 90.3999 33.7172 91.4241 26.2821 88.3419C25.5638 89.4603 24.8482 90.5846 24.1361 91.7144C23.5891 91.7889 23.0234 91.9561 22.439 92.238C20.1336 93.3495 18.7101 95.9797 18.254 98.7851C18.1019 99.7212 18.0374 100.68 18.0436 101.647C15.3073 106.236 12.6804 110.818 10.2375 115.285L7.59437 112.646C10.669 107.025 14.012 101.238 17.4959 95.4902C11.6762 85.2433 5.1137 52.8525 7.43205 41.3461C16.933 49.1786 20.9331 75.7787 20.8409 90.0527C22.4857 87.4203 24.1516 84.8119 25.8381 82.2281C20.1212 71.962 17.9712 31.5638 24.6275 16.7803C33.8017 29.086 32.7705 61.0756 29.7174 76.38C32.4456 72.3408 35.173 68.4523 37.8472 64.8053C33.8041 51.9864 32.9762 13.9839 41.4501 1ZM30.2043 93.9754C32.5384 94.3732 34.9878 94.7772 37.4517 95.0495C39.6627 99.5612 40.486 106.494 38.025 107.595C37.312 107.914 36.2289 107.645 34.9831 106.566C34.2648 105.944 33.5339 105.074 32.8641 104.069C32.4369 100.85 31.4564 97.6989 30.0333 95.3775C30.0477 94.8621 30.0994 94.3974 30.2045 93.9754H30.2043ZM44.3363 95.3368C49.7583 97.0883 54.6147 100.26 57.2692 105.14C53.395 105.59 48.2198 105.653 42.9024 105.361C43.2429 102.271 42.6482 98.6087 41.4426 95.3476C42.4202 95.3807 43.3881 95.3829 44.3363 95.3368ZM24.6384 96.1223C29.8673 95.8619 31.3987 113.162 27.3086 113.69C26.5609 113.786 25.5494 113.198 24.5128 111.772C23.4761 110.345 22.5171 108.195 21.9427 105.96C21.3682 103.725 21.1915 101.416 21.4643 99.7368C21.7373 98.058 22.2637 97.0355 23.544 96.4185C23.9247 96.235 24.2897 96.1398 24.6383 96.1223H24.6384Z" fill="#9FE870"/>
</g>
<path d="M149.167 82.8715C149.167 86.9155 148.4 90.356 146.867 93.1929C145.346 96.0298 143.27 98.1967 140.638 99.6936C138.018 101.178 135.073 101.921 131.801 101.921C128.506 101.921 125.548 101.172 122.929 99.6755C120.309 98.1786 118.239 96.0117 116.718 93.1748C115.197 90.3379 114.436 86.9035 114.436 82.8715C114.436 78.8274 115.197 75.3869 116.718 72.55C118.239 69.7132 120.309 67.5523 122.929 66.0675C125.548 64.5706 128.506 63.8221 131.801 63.8221C135.073 63.8221 138.018 64.5706 140.638 66.0675C143.27 67.5523 145.346 69.7132 146.867 72.55C148.4 75.3869 149.167 78.8274 149.167 82.8715ZM141.217 82.8715C141.217 80.2519 140.825 78.0427 140.04 76.244C139.268 74.4453 138.175 73.0812 136.763 72.1517C135.351 71.2221 133.697 70.7574 131.801 70.7574C129.906 70.7574 128.252 71.2221 126.84 72.1517C125.427 73.0812 124.329 74.4453 123.544 76.244C122.772 78.0427 122.385 80.2519 122.385 82.8715C122.385 85.4911 122.772 87.7002 123.544 89.4989C124.329 91.2976 125.427 92.6617 126.84 93.5913C128.252 94.5208 129.906 94.9856 131.801 94.9856C133.697 94.9856 135.351 94.5208 136.763 93.5913C138.175 92.6617 139.268 91.2976 140.04 89.4989C140.825 87.7002 141.217 85.4911 141.217 82.8715ZM162.544 64.3291V101.414H154.83V64.3291H162.544ZM168.723 101.414V73.6003H176.437V101.414H168.723ZM172.598 70.015C171.451 70.015 170.468 69.6347 169.647 68.8742C168.838 68.1016 168.433 67.1781 168.433 66.1037C168.433 65.0414 168.838 64.1299 169.647 63.3694C170.468 62.5968 171.451 62.2105 172.598 62.2105C173.745 62.2105 174.723 62.5968 175.532 63.3694C176.353 64.1299 176.763 65.0414 176.763 66.1037C176.763 67.1781 176.353 68.1016 175.532 68.8742C174.723 69.6347 173.745 70.015 172.598 70.015ZM208.547 73.6003L198.823 101.414H190.131L180.407 73.6003H188.556L194.332 93.5007H194.622L200.38 73.6003H208.547ZM224.273 101.957C221.412 101.957 218.95 101.378 216.885 100.219C214.833 99.0477 213.252 97.3939 212.141 95.2572C211.03 93.1084 210.475 90.5673 210.475 87.6338C210.475 84.7728 211.03 82.2618 212.141 80.101C213.252 77.9401 214.815 76.2561 216.831 75.0489C218.859 73.8417 221.237 73.2381 223.965 73.2381C225.8 73.2381 227.508 73.5339 229.09 74.1254C230.683 74.7049 232.072 75.5801 233.255 76.751C234.45 77.922 235.379 79.3948 236.043 81.1693C236.707 82.9318 237.039 84.9961 237.039 87.3622V89.4808H213.553V84.7004H229.778C229.778 83.5897 229.537 82.6059 229.054 81.7488C228.571 80.8917 227.901 80.2217 227.044 79.7388C226.199 79.2439 225.215 78.9964 224.092 78.9964C222.921 78.9964 221.883 79.268 220.978 79.8113C220.084 80.3424 219.384 81.0607 218.877 81.9661C218.37 82.8594 218.111 83.8553 218.098 84.9539V89.4989C218.098 90.8751 218.352 92.0642 218.859 93.0661C219.378 94.0681 220.108 94.8407 221.05 95.3839C221.992 95.9272 223.108 96.1988 224.4 96.1988C225.257 96.1988 226.042 96.0781 226.754 95.8366C227.466 95.5952 228.076 95.233 228.583 94.7502C229.09 94.2673 229.476 93.6758 229.742 92.9756L236.876 93.4464C236.514 95.1606 235.772 96.6575 234.649 97.9371C233.538 99.2047 232.102 100.195 230.339 100.907C228.589 101.607 226.567 101.957 224.273 101.957ZM238.216 70.7936V64.3291H268.673V70.7936H257.32V101.414H249.57V70.7936H238.216ZM270.656 101.414V73.6003H278.135V78.4532H278.424C278.931 76.7269 279.783 75.4231 280.978 74.5419C282.173 73.6486 283.549 73.2019 285.106 73.2019C285.493 73.2019 285.909 73.2261 286.356 73.2744C286.802 73.3226 287.195 73.389 287.533 73.4735V80.3183C287.171 80.2096 286.67 80.1131 286.03 80.0286C285.39 79.9441 284.804 79.9018 284.273 79.9018C283.139 79.9018 282.124 80.1493 281.231 80.6442C280.35 81.1271 279.65 81.8031 279.131 82.6723C278.624 83.5415 278.37 84.5434 278.37 85.6782V101.414H270.656ZM302.902 101.957C300.041 101.957 297.578 101.378 295.514 100.219C293.461 99.0477 291.88 97.3939 290.769 95.2572C289.659 93.1084 289.104 90.5673 289.104 87.6338C289.104 84.7728 289.659 82.2618 290.769 80.101C291.88 77.9401 293.443 76.2561 295.459 75.0489C297.487 73.8417 299.866 73.2381 302.594 73.2381C304.429 73.2381 306.137 73.5339 307.718 74.1254C309.312 74.7049 310.7 75.5801 311.883 76.751C313.078 77.922 314.008 79.3948 314.672 81.1693C315.336 82.9318 315.668 84.9961 315.668 87.3622V89.4808H292.182V84.7004H308.406C308.406 83.5897 308.165 82.6059 307.682 81.7488C307.199 80.8917 306.529 80.2217 305.672 79.7388C304.827 79.2439 303.843 78.9964 302.721 78.9964C301.55 78.9964 300.511 79.268 299.606 79.8113C298.713 80.3424 298.013 81.0607 297.506 81.9661C296.999 82.8594 296.739 83.8553 296.727 84.9539V89.4989C296.727 90.8751 296.98 92.0642 297.487 93.0661C298.007 94.0681 298.737 94.8407 299.678 95.3839C300.62 95.9272 301.737 96.1988 303.028 96.1988C303.885 96.1988 304.67 96.0781 305.382 95.8366C306.095 95.5952 306.704 95.233 307.211 94.7502C307.718 94.2673 308.105 93.6758 308.37 92.9756L315.505 93.4464C315.142 95.1606 314.4 96.6575 313.277 97.9371C312.167 99.2047 310.73 100.195 308.968 100.907C307.217 101.607 305.195 101.957 302.902 101.957ZM333.377 101.957C330.516 101.957 328.053 101.378 325.989 100.219C323.937 99.0477 322.355 97.3939 321.245 95.2572C320.134 93.1084 319.579 90.5673 319.579 87.6338C319.579 84.7728 320.134 82.2618 321.245 80.101C322.355 77.9401 323.919 76.2561 325.935 75.0489C327.963 73.8417 330.341 73.2381 333.069 73.2381C334.904 73.2381 336.612 73.5339 338.194 74.1254C339.787 74.7049 341.175 75.5801 342.358 76.751C343.554 77.922 344.483 79.3948 345.147 81.1693C345.811 82.9318 346.143 84.9961 346.143 87.3622V89.4808H322.657V84.7004H338.882C338.882 83.5897 338.64 82.6059 338.157 81.7488C337.675 80.8917 337.005 80.2217 336.147 79.7388C335.302 79.2439 334.319 78.9964 333.196 78.9964C332.025 78.9964 330.987 79.268 330.081 79.8113C329.188 80.3424 328.488 81.0607 327.981 81.9661C327.474 82.8594 327.214 83.8553 327.202 84.9539V89.4989C327.202 90.8751 327.456 92.0642 327.963 93.0661C328.482 94.0681 329.212 94.8407 330.154 95.3839C331.095 95.9272 332.212 96.1988 333.504 96.1988C334.361 96.1988 335.146 96.0781 335.858 95.8366C336.57 95.5952 337.18 95.233 337.687 94.7502C338.194 94.2673 338.58 93.6758 338.846 92.9756L345.98 93.4464C345.618 95.1606 344.875 96.6575 343.753 97.9371C342.642 99.2047 341.206 100.195 339.443 100.907C337.693 101.607 335.671 101.957 333.377 101.957Z" fill="#387709"/>
<path d="M173.281 141.094C171.569 141.094 170.034 140.779 168.676 140.15C167.337 139.539 166.284 138.683 165.517 137.581C164.749 136.479 164.366 135.229 164.366 133.832C164.366 133.438 164.395 132.917 164.454 132.267C164.513 131.618 164.592 130.89 164.69 130.083C164.808 129.276 164.926 128.459 165.045 127.633C165.182 126.786 165.31 125.969 165.428 125.182L169.325 125.714C169.109 127.032 168.922 128.243 168.764 129.345C168.626 130.427 168.518 131.352 168.44 132.12C168.361 132.887 168.321 133.448 168.321 133.802C168.321 134.59 168.518 135.269 168.912 135.839C169.305 136.41 169.866 136.853 170.595 137.168C171.342 137.502 172.238 137.67 173.281 137.67C174.363 137.67 175.239 137.512 175.908 137.197C176.578 136.883 177.06 136.45 177.355 135.898C177.67 135.347 177.827 134.727 177.827 134.039V118.953H181.783V134.039C181.783 135.456 181.409 136.696 180.661 137.758C179.933 138.821 178.929 139.638 177.65 140.209C176.371 140.799 174.915 141.094 173.281 141.094ZM171.126 117.89V114.525H175.082V117.89H171.126ZM199.001 133.773V130.348H202.1V133.773H199.001ZM191.03 141.094C190.302 141.094 189.534 141.035 188.727 140.917C187.94 140.819 187.094 140.681 186.188 140.504L186.779 137.345C187.763 137.463 188.599 137.552 189.288 137.611C189.977 137.67 190.557 137.699 191.03 137.699C192.447 137.699 193.47 137.443 194.1 136.932C194.73 136.42 195.045 135.652 195.045 134.629V121.669L196.019 122.378H192.329C191.522 122.378 190.872 122.476 190.38 122.673C189.888 122.85 189.524 123.234 189.288 123.824C189.072 124.395 188.963 125.271 188.963 126.452C188.963 127.573 189.062 128.42 189.259 128.99C189.475 129.542 189.829 129.906 190.321 130.083C190.813 130.26 191.482 130.348 192.329 130.348H195.045V133.773H192.329C190.656 133.773 189.278 133.507 188.196 132.976C187.113 132.444 186.306 131.638 185.775 130.555C185.263 129.473 185.007 128.105 185.007 126.452C185.007 124.798 185.263 123.421 185.775 122.319C186.306 121.197 187.113 120.36 188.196 119.809C189.278 119.239 190.656 118.953 192.329 118.953H199.001V134.629C199.001 135.967 198.666 137.119 197.997 138.083C197.347 139.067 196.422 139.815 195.222 140.327C194.041 140.838 192.644 141.094 191.03 141.094ZM202.1 133.773V130.348C202.337 130.348 202.494 130.506 202.573 130.821C202.651 131.116 202.691 131.529 202.691 132.061C202.691 132.572 202.651 132.986 202.573 133.301C202.494 133.616 202.337 133.773 202.1 133.773ZM210.725 133.773V130.348H214.415V133.773H210.725ZM214.415 133.773V130.348C214.651 130.348 214.809 130.506 214.887 130.821C214.966 131.116 215.005 131.529 215.005 132.061C215.005 132.572 214.966 132.986 214.887 133.301C214.809 133.616 214.651 133.773 214.415 133.773ZM202.104 133.773V130.348H209.101L206.798 132.267V118.953H210.725V133.773H202.104ZM202.104 133.773C201.868 133.773 201.711 133.616 201.632 133.301C201.553 132.986 201.514 132.572 201.514 132.061C201.514 131.529 201.553 131.116 201.632 130.821C201.711 130.506 201.868 130.348 202.104 130.348V133.773ZM203.285 117.182V113.817H207.241V117.182H203.285ZM207.33 117.182V113.817H211.286V117.182H207.33ZM214.415 133.773V130.348H221.411L219.109 132.267V118.953H223.035V133.773H214.415ZM214.415 133.773C214.178 133.773 214.021 133.616 213.942 133.301C213.864 132.986 213.824 132.572 213.824 132.061C213.824 131.529 213.864 131.116 213.942 130.821C214.021 130.506 214.178 130.348 214.415 130.348V133.773ZM215.596 139.913V136.548H219.551V139.913H215.596ZM219.64 139.913V136.548H223.596V139.913H219.64ZM226.319 141.094C226.063 141.094 225.787 141.084 225.492 141.065C225.197 141.045 224.892 141.016 224.577 140.976L224.725 137.611C225.039 137.63 225.335 137.65 225.61 137.67C225.905 137.689 226.122 137.699 226.26 137.699C227.027 137.699 227.637 137.394 228.09 136.784C228.562 136.174 228.798 135.318 228.798 134.216V118.953H232.754V134.216C232.754 135.554 232.479 136.745 231.928 137.788C231.396 138.831 230.648 139.638 229.684 140.209C228.72 140.799 227.598 141.094 226.319 141.094ZM228.798 116.237V112.872H232.754V116.237H228.798ZM285.185 133.773V130.348H288.284V133.773H285.185ZM288.284 133.773V130.348C288.521 130.348 288.678 130.506 288.757 130.821C288.836 131.116 288.875 131.529 288.875 132.061C288.875 132.572 288.836 132.986 288.757 133.301C288.678 133.616 288.521 133.773 288.284 133.773ZM265.996 133.773V130.348H284.565L281.229 133.242V127.042C281.229 125.92 281.081 125.025 280.786 124.356C280.491 123.667 280.058 123.165 279.487 122.85C278.936 122.535 278.267 122.378 277.48 122.378C276.633 122.378 275.826 122.545 275.059 122.88C274.311 123.214 273.612 123.647 272.963 124.179C272.313 124.71 271.713 125.281 271.162 125.891C270.611 126.501 270.119 127.091 269.686 127.662C269.253 128.213 268.879 128.685 268.564 129.079L267.679 126.215C268.446 125.29 269.135 124.444 269.745 123.677C270.375 122.909 270.965 122.23 271.516 121.64C272.087 121.049 272.678 120.557 273.288 120.164C273.898 119.77 274.577 119.475 275.325 119.278C276.072 119.061 276.938 118.953 277.922 118.953C279.221 118.953 280.333 119.18 281.258 119.632C282.183 120.065 282.931 120.665 283.502 121.433C284.092 122.201 284.516 123.067 284.771 124.031C285.047 124.995 285.185 125.999 285.185 127.042V133.773H265.996ZM259.767 125.33V121.876H265.996V125.33H259.767ZM265.996 130.348V118.953H269.922V130.348H265.996ZM251.265 141.094C249.552 141.094 248.017 140.779 246.659 140.15C245.321 139.539 244.268 138.683 243.501 137.581C242.733 136.479 242.349 135.229 242.349 133.832C242.349 133.438 242.379 132.917 242.438 132.267C242.497 131.618 242.576 130.89 242.674 130.083C242.792 129.276 242.91 128.459 243.028 127.633C243.166 126.786 243.294 125.969 243.412 125.182L247.309 125.714C247.092 127.032 246.905 128.243 246.748 129.345C246.61 130.427 246.502 131.352 246.423 132.12C246.344 132.887 246.305 133.448 246.305 133.802C246.305 134.59 246.502 135.269 246.896 135.839C247.289 136.41 247.85 136.853 248.578 137.168C249.326 137.502 250.222 137.67 251.265 137.67C252.347 137.67 253.223 137.512 253.892 137.197C254.561 136.883 255.043 136.45 255.339 135.898C255.654 135.347 255.811 134.727 255.811 134.039V118.953H259.767V134.039C259.767 135.456 259.393 136.696 258.645 137.758C257.917 138.821 256.913 139.638 255.634 140.209C254.355 140.799 252.898 141.094 251.265 141.094ZM249.11 117.89V114.525H253.066V117.89H249.11ZM293.826 133.301C292.822 132.356 292.064 131.352 291.553 130.289C291.061 129.227 290.815 128.095 290.815 126.894C290.815 125.733 291.031 124.671 291.464 123.706C291.897 122.722 292.487 121.876 293.235 121.167C293.983 120.459 294.849 119.918 295.833 119.544C296.837 119.15 297.89 118.953 298.992 118.953C299.582 118.953 300.202 119.012 300.852 119.13C301.501 119.248 302.121 119.406 302.712 119.603L301.531 122.821C301.118 122.683 300.704 122.575 300.291 122.496C299.897 122.417 299.514 122.378 299.14 122.378C298.274 122.378 297.506 122.575 296.837 122.968C296.168 123.342 295.646 123.864 295.272 124.533C294.918 125.202 294.741 125.969 294.741 126.835C294.741 128.449 295.371 129.807 296.63 130.909L293.826 133.301ZM288.276 133.773V130.348H302.977V133.773H288.276ZM288.276 133.773C288.04 133.773 287.882 133.616 287.803 133.301C287.725 132.986 287.685 132.572 287.685 132.061C287.685 131.529 287.725 131.116 287.803 130.821C287.882 130.506 288.04 130.348 288.276 130.348V133.773ZM295.479 116.237V112.872H299.435V116.237H295.479Z" fill="#232323"/>
</g>
<defs>
<filter id="filter0_d_526_3099" x="0.451143" y="0.0710058" width="92.4542" height="127.291" filterUnits="userSpaceOnUse" color-interpolation-filters="sRGB">
<feFlood flood-opacity="0" result="BackgroundImageFix"/>
<feColorMatrix in="SourceAlpha" type="matrix" values="0 0 0 0 0 0 0 0 0 0 0 0 0 0 0 0 0 0 127 0" result="hardAlpha"/>
<feOffset dy="5.57396"/>
<feGaussianBlur stdDeviation="3.25148"/>
<feComposite in2="hardAlpha" operator="out"/>
<feColorMatrix type="matrix" values="0 0 0 0 0 0 0 0 0 0 0 0 0 0 0 0 0 0 0.25 0"/>
<feBlend mode="normal" in2="BackgroundImageFix" result="effect1_dropShadow_526_3099"/>
<feBlend mode="normal" in="SourceGraphic" in2="effect1_dropShadow_526_3099" result="shape"/>
</filter>
</defs>
</svg>
